<?xml version="1.0" encoding="utf-8"?>
<!-- Generator: Adobe Illustrator 25.4.1, SVG Export Plug-In . SVG Version: 6.00 Build 0)  -->
<svg version="1.1" id="Layer_1" xmlns:svg="http://www.w3.org/2000/svg"
	 xmlns="http://www.w3.org/2000/svg" xmlns:xlink="http://www.w3.org/1999/xlink" x="0px" y="0px" viewBox="0 0 98.7 74.9"
	 style="enable-background:new 0 0 98.7 74.9;" xml:space="preserve">
<style type="text/css">
	.st0{fill-rule:evenodd;clip-rule:evenodd;}
	
		.st1{fill-rule:evenodd;clip-rule:evenodd;stroke:#000000;stroke-width:2.834645e-02;stroke-linecap:round;stroke-linejoin:round;stroke-miterlimit:11.3386;}
	.st2{fill:#FFFFFF;}
	
		.st3{fill:#168E4C;fill-opacity:0;stroke:#000000;stroke-width:0.2835;stroke-linecap:round;stroke-linejoin:round;stroke-miterlimit:11.3386;}
</style>
<desc>Image generated by PCBNEW</desc>
<g transform="translate(0 0) scale(1 1)">
</g>
<g>
	<g>
		<desc></desc>
	</g>
	<g>
		<desc></desc>
	</g>
	<g>
		<desc></desc>
	</g>
	<g>
		<desc></desc>
	</g>
	<g>
		<desc></desc>
	</g>
	<g>
		<desc></desc>
	</g>
	<g>
		<desc></desc>
	</g>
	<g>
		<desc></desc>
	</g>
	<g>
		<desc></desc>
	</g>
	<g>
		<desc></desc>
	</g>
	<g>
		<desc></desc>
	</g>
	<g>
		<desc></desc>
	</g>
	<g>
		<desc></desc>
	</g>
	<g>
		<desc></desc>
	</g>
	<g>
		<desc></desc>
	</g>
	<g>
		<desc></desc>
	</g>
	<g>
		<desc></desc>
	</g>
	<g>
		<desc></desc>
	</g>
	<g>
		<desc></desc>
	</g>
	<g>
		<desc></desc>
	</g>
</g>
<g>
	<path class="st0" d="M68,43.6L68,43.6l-0.2,0.1l-0.1,0h-2l-0.2,0l-0.1-0.1l0-0.2v-0.3H66h1.4v-0.3l0-0.3l-0.1-0.2l-0.2-0.2
		l-0.3-0.1l-0.3,0.1l-0.2,0.2L66,42.5l0,0.2v0.3h-0.6v-0.3l0-0.3l0.1-0.2l0.1-0.2l0.2-0.2l0.2-0.2l0.2-0.1l0.2-0.1l0.3,0l0.3,0
		l0.2,0.1l0.2,0.1l0.2,0.2l0.2,0.2l0.1,0.2l0.1,0.2l0,0.3l0,0.7L68,43.6z"/>
	<path class="st0" d="M66.3,39.9L66.3,39.9l0.1,0.2V41l0,0.2l-0.1,0.1l-0.2,0l-0.2,0l-0.1-0.1l0-0.2v-0.9l0-0.2l0.1-0.1l0.2,0
		L66.3,39.9z"/>
	<path class="st0" d="M71.2,41.6l0.1,0.1l0.1,0.1l0.1,0.3l0,0.2l0,0.2l0,0.2l-0.1,0.2l-0.1,0.2l-0.1,0.2L71,43.4l-0.2,0.1l-0.2,0.1
		l-0.2,0.1l-0.3,0l-0.3,0l-0.2-0.1l-0.2-0.1l-0.2-0.1L69,43.3l-0.1-0.2l-0.1-0.2l-0.1-0.2l0-0.2l0-0.2l0-0.2l0-0.2l0.1-0.2l0.1-0.1
		l0.1-0.1l0.1,0l0.2,0.1l0.2,0.1l0.1,0.1L69.5,42l0,0.1l-0.1,0.1l0,0.2l0,0.2l0.1,0.2l0.2,0.2l0.2,0.1l0.2,0l0.2,0l0.2-0.1l0.2-0.2
		l0.1-0.2l0-0.2l0-0.2L70.7,42l-0.1-0.2l0-0.1l0.1-0.1l0.2-0.1L71.2,41.6z"/>
</g>
<g>
	<path class="st1" d="M24.4,42.2l0.6,0.1l0.6,0.2l0.5,0.3l0.4,0.4l0.3,0.5l0.3,0.6l0.1,0.3l0.1,0.5l0,0.5l-0.1,0.5L27,46.6l-0.3,0.5
		l-0.4,0.5L26,48.1l-0.5,0.3l-0.1,0.1l-0.2,0.1l-0.2,0.1l-0.2,0.1l-0.3,0.1l-0.1,0l-0.2,0l-0.3,0l-0.3,0l-0.3,0l-0.2,0l-0.3-0.1
		l0.5-1.5l0.2,0l0.4,0l0.4-0.1l0.4-0.1l0.3-0.2l0.3-0.3l0.2-0.3l0.1-0.4l0-0.4l-0.1-0.4l0-0.1l-0.2-0.3l-0.3-0.3L24.8,44l-0.3-0.2
		l-0.3-0.1l-0.4,0l-0.4,0.1L22.9,44l-0.3,0.3l-0.3,0.4l-0.1,0.1l-0.1,0.1l-0.1,0l-0.1,0l-0.2-0.1l-0.2-0.1l-0.3-0.1l-0.2-0.1
		L21,44.5l-0.2-0.1l-0.1,0l0,0l0-0.1l0.1-0.1l0.1-0.2l0.2-0.4l0.4-0.4l0.2-0.2l0.5-0.4l0.5-0.2l0.6-0.1l0.6,0L24.4,42.2z"/>
	<path class="st1" d="M39.8,44.6l0,0.2l-0.1,0.6L39.7,46l0,0.2l-0.1,0.6l-0.1,0.6l-0.1,0.5l0,0.4l0,0.4l0,0.3l0,0.2l0,0.1l0,0l0,0
		l0,0l-0.1,0l-0.1,0l-0.2-0.1L38.6,49l-0.8-0.3l0-0.4l0-0.4L37,47.4L36.1,47l-0.3,0.3l-0.1,0.1l-0.1,0.1l-0.1,0l0,0l-0.1-0.1
		l-0.2-0.1l-0.2-0.1l-0.2-0.1l-0.2-0.1L34.2,47l-0.1-0.1l0,0l0,0l0.1-0.1l0.1-0.2l0.2-0.2l0.3-0.3l0.3-0.3l0,0h2.1l0.4,0.2l0.1,0.1
		l0.2,0.1l0.1,0l0,0l0,0l0-0.1l0-0.2l0-0.2l0-0.3l0-0.2l0-0.2l0-0.1l0-0.1l0,0l-0.1,0.1l-0.1,0.1L37.9,45l-0.2,0.2l-0.5,0.6H35
		l0.3-0.4l0.4-0.4l0.4-0.4l0.1-0.2l0.4-0.4l0.4-0.4l0.4-0.4l0.3-0.4l0.3-0.3l0.2-0.2l0.2-0.2l0.1-0.1l0.2-0.2l0.7,0.3l0.7,0.3l0,0.2
		l0,0l0,0.1l0,0.2l0,0.3l0,0.4l0,0.5L39.8,44.6z"/>
	<path class="st1" d="M33.5,43.7l0,0.1l0,0.6l0,0.6l0,1.9H32l0-0.4l0-0.2l0-0.3l0-0.3v-0.5l-0.2,0l-0.1,0l-0.1,0l-0.1,0.1l-0.1,0.1
		l-0.1,0.2l-0.1,0.2l-0.2,0.3L30.4,47h-0.9l-0.2,0L29,47l-0.2,0l-0.1,0l0,0l0,0l0.1-0.1l0.1-0.2l0.1-0.2l0.2-0.3l0.2-0.3l0.1-0.1
		l0.2-0.3l0.2-0.3l0.1-0.2l0.1-0.1l0-0.1l0,0l-0.1-0.1l-0.1-0.1l-0.2-0.2l-0.2-0.4l-0.1-0.4l0-0.2l0-0.2h1.6l0.1,0.2l0.2,0.2
		l0.3,0.2l0.1,0.1l0.2,0.1l0.1,0l0.1,0l0-0.9l0-0.1l0-0.3l0-0.2l0-0.2l0-0.1l-0.1,0l-0.1,0L31.4,42l-0.2,0.1l-0.2,0.1l0,0l-0.2,0.2
		l-0.1,0.2l0,0.3h-1.6l0-0.3l0.1-0.5l0.2-0.4l0.3-0.4l0.4-0.3l0.4-0.3l0.2-0.1l0.3-0.1l0.3-0.1l0.3-0.1l0.4,0l0.5,0l1,0l0,1.4l0,0
		l0,0.4l0,0.5l0,0.6L33.5,43.7z"/>
	<path class="st1" d="M36.6,48.8l0.4,0.1l0.2,0.1l0.4,0.3l0.3,0.4l0.2,0.4l0.1,0.5l0,0.2l-0.1,0.4l-0.2,0.3l-0.3,0.3l-0.2,0.2
		L37,52.2l-0.3,0.1l-0.2,0.1l-0.4,0l-0.4-0.1l-0.2-0.1l-0.2-0.1L35,52.1L34.9,52l-0.1-0.1v0l0-0.1l0.1-0.1l0.1-0.2l0.3-0.3l0.2,0.1
		l0.1,0l0.3,0.1l0.3,0l0.3-0.1l0.2-0.1l0.2-0.2l0.1-0.3l0-0.3L37,50.3l0-0.1l-0.2-0.3l-0.2-0.2l-0.3-0.1l-0.3,0l-0.3,0.1l-0.2,0.1
		l-0.6-0.6l0.2-0.1l0.3-0.2l0.4-0.1l0.4,0L36.6,48.8z"/>
	<path class="st1" d="M34.8,50.6L34.8,50.6l-0.1,0.5l-0.2,0.4l-0.3,0.4L34,52.2l-0.4,0.2l-0.1,0l-0.4,0l-0.4-0.1l-0.4-0.2L31.8,52
		l-0.3-0.3l-0.1-0.1l-0.1-0.2L31.2,51l0-0.2l0-0.2h0.9l0,0.1l0.1,0.3l0.2,0.3l0.3,0.2l0.3,0.1l0.3,0l0.3-0.1l0.3-0.2l0.1-0.1
		l0.1-0.1l0-0.1l0-0.2l0-0.1l-0.1-0.3L33.7,50l-0.3-0.2l-0.1-0.1L33,49.6l-0.3,0l-0.3,0.1L32.3,50l-0.1,0.3l-0.1,0.3h-0.9l0-0.2
		l0.1-0.4l0.2-0.4l0.3-0.3L32,49l0.4-0.2l0.4-0.1l0.4,0l0.4,0.1l0.4,0.2l0.3,0.3l0.3,0.4l0.1,0.2l0.1,0.2l0,0.2L34.8,50.6L34.8,50.6
		z"/>
	<path class="st1" d="M27.9,52.5h-2.4v-0.9H27V51l-0.6,0l-0.6,0v-0.8l0.6,0l0.6,0v-0.5h-1.5v-0.9h2.4V52.5z"/>
	<path class="st1" d="M30.9,50.1v2.3H30V52l0-0.2l0-0.2l0-0.1l-0.1,0l-0.1,0l-0.1,0l0,0l-0.1,0.1l-0.1,0.2l-0.1,0.2l-0.2,0.4h-0.5
		l-0.2,0l-0.2,0l-0.1,0l0,0l0-0.1l0.1-0.1l0.1-0.2l0.1-0.2l0.1-0.2l0.1-0.2l0.1-0.1l0-0.1l0,0L28.9,51l-0.1-0.2l-0.1-0.1l-0.1-0.2
		l0-0.3l0,0l0-0.1h0.9l0,0.1l0.1,0.1l0.2,0.1l0.1,0.1l0.1,0l0.1-0.1l0-0.2l0-0.3l0-0.2l0-0.2l0-0.1l0,0l-0.1,0l-0.1,0l-0.2,0.1
		L29.5,50l-0.1,0.1h-0.9l0-0.3l0.1-0.3l0.3-0.3l0.4-0.2l0.1,0l0.2-0.1l0.2,0l0.2,0l0.3,0l0.6,0V50.1z"/>
</g>
<g>
	<path class="st0" d="M77.5,41.5l0.1,0.2v0.6l0,0.2l-0.1,0.1l-0.2,0l-0.2,0l-0.1-0.1l0-0.2v-0.3h-0.4l0,0.2l0,0.2l0.1,0.3l0.2,0.2
		L77,43l0.2,0.1l0.2,0l0.3-0.1l0.2-0.2l0.1-0.2l0-0.3l0-0.2l-0.1-0.2l-0.1-0.2l0-0.1l0.1-0.1l0.2-0.1l0.2,0.1l0.2,0.3l0.1,0.3l0,0.3
		l0,0.3l-0.1,0.2l-0.1,0.2l-0.2,0.2l-0.2,0.2l-0.2,0.1l-0.3,0.1l-0.3,0l-0.3,0l-0.3-0.1l-0.2-0.1l-0.2-0.2l-0.2-0.2L76,42.9L76,42.7
		l0-0.3l0-0.3l0.1-0.2l0.1-0.2l0.1-0.2l0.2-0.1h0.8L77.5,41.5z"/>
	<path class="st0" d="M78.6,38.4L78.6,38.4l-0.2,0.1l-0.1,0h-2l-0.2,0L76,38.4l0-0.2v-0.3h0.6H78v-0.3l0-0.3l-0.1-0.2l-0.2-0.2
		l-0.3-0.1L77,36.9l-0.2,0.2l-0.1,0.2l0,0.2v0.3H76v-0.3l0-0.3l0.1-0.2l0.1-0.2l0.2-0.2l0.2-0.2l0.2-0.1l0.2-0.1l0.3,0l0.3,0
		l0.2,0.1l0.2,0.1l0.2,0.2l0.2,0.2l0.1,0.2l0.1,0.2l0,0.3l0,0.7L78.6,38.4z"/>
	<path class="st0" d="M78.5,38.9L78.5,38.9l0.1,0.1l0,0.2l0,0.2l-0.1,0.1l-0.2,0h-1.2l0.1,0.1l0.2,0.1l0.2,0.2l0.2,0.2l0.3,0.2
		l0.3,0.2l0.1,0.1l0,0.1l0,0.2l0,0.2l-0.1,0.1l-0.2,0h-2l-0.1,0l-0.1,0L76,41l0-0.2l0-0.2l0.1-0.1l0.1,0l0.1,0h1.2l-0.1-0.1
		l-0.2-0.1L77,40.1l-0.3-0.2l-0.3-0.2l-0.3-0.3L76,39.4l0-0.2l0-0.2l0.1-0.1l0.1,0l0.1,0h2L78.5,38.9z"/>
	<path class="st0" d="M66.2,22.1L66.2,22.1l0.1,0.2l0,0.2l-0.1,0.1l-0.2,0h-0.7v1.8l0,0.1l0,0.1l-0.1,0.1l-0.2,0l-0.2,0l-0.1-0.1
		l0-0.1l0-0.1v-1.8H64l-0.2,0l-0.1-0.1l0-0.1l0-0.2l0.1-0.1l0.2,0h2L66.2,22.1z"/>
	<path class="st0" d="M67.8,22l0.2,0l0.2,0.1l0.2,0.1l0.2,0.2l0.2,0.2l0.1,0.2l0.1,0.3l0,0.3l0,0.3L69,23.9l-0.1,0.2l-0.2,0.2
		l-0.2,0.2l-0.2,0.1L68,24.7l-0.3,0l-0.3,0l-0.2-0.1L67,24.5l-0.2-0.2l-0.2-0.2l-0.1-0.2l-0.1-0.3l0-0.3h0.6l0,0.2l0.1,0.2l0.1,0.1
		l0.2,0.1l0.2,0l0.2,0l0.2-0.1l0.1-0.1l0.1-0.2l0-0.2l0-0.2L68.3,23l-0.1-0.1L68,22.7l-0.2,0l-0.2,0l-0.2,0.1L67.2,23l-0.1,0.2
		l0,0.2h-0.6l0,0l0-0.3l0.1-0.3l0.1-0.2l0.2-0.2l0.2-0.2l0.2-0.1l0.2-0.1L67.8,22z"/>
	<path class="st0" d="M72.2,23.3l-0.1-0.2l0-0.2l0-0.2l0.1-0.2l0.1-0.2l0.2-0.1l0.2-0.1l0.2,0h0.9l0.2,0l0.1,0.1l0,0.1l0,0.1v2
		l0,0.2L74,24.6l-0.2,0h-0.9l-0.2,0l-0.2-0.1l-0.2-0.1l-0.1-0.2l-0.1-0.2l0-0.2l0,0h0.6l0.1,0.2l0.2,0.1h0.6v-1.4H73l-0.2,0
		l-0.1,0.1l0,0.1l0.2,0.1l0.2,0.1l0.1,0.2l-0.1,0.2L73,23.6l-0.2,0l-0.1,0.1l0,0.1H72l0-0.2l0.1-0.2L72.2,23.3z"/>
	<path class="st0" d="M70.6,22l0.2,0l0.2,0.1l0.2,0.1l0.2,0.2l0.2,0.2l0.1,0.2l0.1,0.3l0,0.3l0,0.3l-0.1,0.2l-0.1,0.2l-0.2,0.2
		l-0.2,0.2L71,24.6l-0.2,0.1l-0.3,0l-0.3,0L70,24.6l-0.2-0.1l-0.2-0.2l-0.2-0.2l-0.1-0.2l-0.1-0.3l0-0.3h0.6l0,0.2l0.1,0.2l0.1,0.1
		l0.2,0.1l0.2,0l0.2,0l0.2-0.1l0.1-0.1l0.1-0.2l0-0.2l0-0.2L71.1,23L71,22.8l-0.2-0.1l-0.2,0l-0.2,0l-0.2,0.1L70,23l-0.1,0.2l0,0.2
		h-0.6l0,0l0-0.3l0.1-0.3l0.1-0.2l0.2-0.2l0.2-0.2l0.2-0.1l0.2-0.1L70.6,22z"/>
	<path class="st0" d="M51,49.4l0.1,0.1l0,0.2l-0.1,0.2L51,50l-2,1l-0.2,0.1L48.7,51l-0.1-0.2l-0.1-0.2l0-0.1l0.1-0.1l0.1-0.1
		l0.4-0.2V50h0.5l0.5-0.2l-0.5-0.2V50h-0.5v-0.7L48.7,49L48.6,49l-0.1-0.1l0-0.1l0.1-0.2l0.1-0.2l0.1-0.1l0.2,0.1L51,49.4z"/>
	<path class="st0" d="M39.3,22.7l0.1,0.3v2l0,0.2l-0.1,0.1l-0.2,0h-1.4l-0.2,0l-0.1-0.1l0-0.2l0-0.2l0.1-0.1l0.1,0l0.1,0h1.1v-0.4
		H38l-0.2,0l-0.1-0.1l0-0.2l0-0.2l0.1-0.1l0.1,0l0.1,0h0.7v-0.4h-1.1l-0.2,0l-0.1-0.1l0-0.2l0-0.2l0.1-0.1l0.1,0l0.1,0H39L39.3,22.7
		z"/>
	<path class="st0" d="M43.6,22.8l0.1-0.1l0.2,0l0.2,0.1l0.1,0.1l1,2l0.1,0.2l-0.1,0.1L45,25.2l-0.2,0.1l-0.1,0l-0.1-0.1l-0.1-0.1
		l-0.2-0.4h-1l-0.2,0.4l-0.1,0.1l-0.1,0.1l-0.1,0l-0.2-0.1l-0.2-0.1L42.6,25l0.1-0.2l0.3-0.7h0.7h0.5l-0.2-0.5l-0.2,0.5H43
		L43.6,22.8z"/>
	<path class="st0" d="M26.9,22.7l0.1,0.3v2l0,0.2l-0.1,0.1l-0.2,0h-1.4l-0.2,0L25,25.1l0-0.2l0-0.2l0.1-0.1l0.1,0l0.1,0h1.1v-0.4
		h-0.7l-0.2,0l-0.1-0.1l0-0.2l0-0.2l0.1-0.1l0.1,0l0.1,0h0.7v-0.4h-1.1l-0.2,0L25,23.1l0-0.2l0-0.2l0.1-0.1l0.1,0l0.1,0h1.4
		L26.9,22.7z"/>
	<path class="st0" d="M42.3,22.6L42.3,22.6l0.1,0.2l0,0.1v2l0,0.2l-0.1,0.1l-0.2,0h-1.3l-0.2,0l-0.1-0.1l0-0.2l0-0.2l0.1-0.1l0.2,0
		h1v-1.8l0-0.2l0.1-0.1l0.2,0L42.3,22.6z"/>
	<path class="st0" d="M37.1,22.6L37.1,22.6l0.1,0.2l0,0.2l-0.1,0.1l-0.2,0h-0.7v1.8l0,0.1l0,0.1l-0.1,0.1l-0.2,0l-0.2,0l-0.1-0.1
		l0-0.1l0-0.1v-1.8h-0.7l-0.2,0L34.6,23l0-0.1l0-0.2l0.1-0.1l0.2,0h2L37.1,22.6z"/>
	<path class="st0" d="M49,22.8l0.1-0.1l0.2,0l0.2,0.1l0.1,0.1l1,2l0.1,0.2l-0.1,0.1l-0.2,0.1l-0.2,0.1l-0.1,0L50,25.2L50,25.1
		l-0.2-0.4h-1l-0.2,0.4l-0.1,0.1l-0.1,0.1l-0.1,0l-0.2-0.1L48,25.1L48,25l0.1-0.2l0.3-0.7h0.7h0.5l-0.2-0.5l-0.2,0.5h-0.7L49,22.8z"
		/>
	<path class="st0" d="M40.1,22.6L40.1,22.6l0.1,0.2l0,0.1v2l0,0.2l-0.1,0.1l-0.2,0l-0.2,0l-0.1-0.1l0-0.1l0-0.1v-2l0-0.2l0.1-0.1
		l0.2,0L40.1,22.6z"/>
	<path class="st0" d="M22.8,24.6l0.1-0.2l0.1-0.1L22.8,24l-0.1-0.2l0-0.3h0.6l0.1,0.2l0.2,0.1h0.5v-0.6h-0.5l-0.2,0.1l-0.1,0.2h-0.6
		l0-0.2l0.1-0.2l0.1-0.2l0.1-0.1l0.2-0.1l0.2-0.1l0.2,0h0.8l0.2,0l0.1,0.1l0,0.1l0,0.1v2l0,0.2l-0.1,0.1l-0.2,0l-0.2,0l-0.1-0.1
		l0-0.1l0-0.1v-0.4h-0.5l-0.1,0l-0.1,0.3L23.3,25l0,0.1l-0.1,0.1l-0.1,0l-0.2-0.1l-0.2-0.1L22.6,25l0.1-0.2L22.8,24.6z"/>
	<path class="st0" d="M47.8,22.6L47.8,22.6l0.1,0.2l0,0.2l-0.1,0.1l-0.2,0h-0.7v1.8l0,0.1l0,0.1l-0.1,0.1l-0.2,0l-0.2,0l-0.1-0.1
		l0-0.1l0-0.1v-1.8h-0.7l-0.2,0L45.4,23l0-0.1l0-0.2l0.1-0.1l0.2,0h2L47.8,22.6z"/>
	<path class="st0" d="M29.5,22.6l0.1,0.1l0,0.2v2l0,0.1l0,0.1l-0.1,0.1l-0.2,0l-0.2,0L29,25.1l0-0.1l0-0.1v-1.2l-0.1,0.1L28.7,24
		l-0.2,0.2l-0.2,0.3l-0.2,0.3l-0.3,0.3l-0.1,0.1l-0.2,0l-0.2,0l-0.1-0.1l0-0.1l0-0.1v-2l0-0.2l0-0.1l0.1,0l0.2,0l0.2,0l0.1,0.1
		l0,0.2v1.2L28,24l0.1-0.2l0.2-0.2l0.2-0.2l0.2-0.3l0.2-0.3l0.1-0.1l0.1,0l0.2,0L29.5,22.6z"/>
	<path class="st0" d="M22.1,22.6l0.2,0l0.1,0.1l0,0.1l0,0.1v2l0,0.2l-0.1,0.1l-0.2,0h-0.7l-0.3,0L21,25.1L20.7,25l-0.2-0.2l-0.2-0.2
		l-0.1-0.2l-0.1-0.2l0-0.2h0.6l0.1,0.3l0.2,0.2l0.2,0.1l0.2,0h0.3v-1.4h-0.3l-0.3,0L21,23.4l-0.2,0.2l-0.1,0.3h-0.6l0,0l0-0.3
		l0.1-0.2l0.1-0.2l0.2-0.2l0.2-0.2l0.2-0.1l0.2-0.1l0.3,0L22.1,22.6z"/>
	<path class="st0" d="M53,22.6l0.1,0.1l0,0.2v2l0,0.1l0,0.1L53,25.2l-0.2,0l-0.2,0l-0.1-0.1l0-0.1l0-0.1v-1.2l-0.1,0.1L52.3,24
		l-0.2,0.2l-0.2,0.3l-0.2,0.3l-0.3,0.3l-0.1,0.1l-0.2,0l-0.2,0l-0.1-0.1l0-0.1l0-0.1v-2l0-0.2l0-0.1l0.1,0l0.2,0l0.2,0l0.1,0.1
		l0,0.2v1.2l0.1-0.1l0.1-0.2l0.2-0.2l0.2-0.2l0.2-0.3l0.2-0.3l0.1-0.1l0.1,0l0.2,0L53,22.6z"/>
	<path class="st0" d="M34.3,22.6L34.3,22.6l0.1,0.2l0,0.1v2l0,0.2l-0.1,0.1l-0.2,0l-0.2,0l-0.1-0.1l0-0.1l0-0.1v-0.7h-1v0.7l0,0.2
		l-0.1,0.1l-0.2,0l-0.2,0l-0.1-0.1l0-0.1l0-0.1v-2l0-0.2l0.1-0.1l0.1,0l0.2,0l0.2,0l0.1,0.1l0,0.1l0,0.1v0.7h1v-0.7l0-0.2l0.1-0.1
		l0.2,0L34.3,22.6z"/>
	<path class="st0" d="M31.8,22.7l0.1,0.3v2l0,0.2l-0.1,0.1l-0.2,0h-1.4l-0.2,0l-0.1-0.1l0-0.2l0-0.2l0.1-0.1l0.1,0l0.1,0h1.1v-0.4
		h-0.7l-0.2,0l-0.1-0.1l0-0.2l0-0.2l0.1-0.1l0.1,0l0.1,0h0.7v-0.4h-1.1l-0.2,0l-0.1-0.1l0-0.2l0-0.2l0.1-0.1l0.1,0l0.1,0h1.4
		L31.8,22.7z"/>
	<path class="st0" d="M47.3,44.5L47.3,44.5l0.1,0.1l0,0.2l0,0.2L47.3,45l-0.2,0h-1.2l0.1,0.1l0.2,0.1l0.2,0.2l0.2,0.2l0.3,0.2
		l0.3,0.2l0.1,0.1l0,0.1l0,0.2l0,0.2l-0.1,0.1l-0.2,0h-2l-0.1,0l-0.1,0l-0.1-0.1l0-0.2l0-0.2l0.1-0.1l0.1,0l0.1,0h1.2L46.1,46
		L46,45.9l-0.2-0.2l-0.3-0.2l-0.3-0.2L44.9,45l-0.1-0.1l0-0.2l0-0.2l0.1-0.1l0.1,0l0.1,0h2L47.3,44.5z"/>
	<path class="st0" d="M47.4,50.9L47.4,50.9L47.2,51l-0.1,0h-2l-0.2,0l-0.1-0.1l0-0.2v-0.3h0.6h1.4v-0.3l0-0.3l-0.1-0.2l-0.2-0.2
		l-0.3-0.1l-0.3,0.1l-0.2,0.2l-0.1,0.2l0,0.2v0.3h-0.6v-0.3l0-0.3l0.1-0.2l0.1-0.2l0.2-0.2l0.2-0.2l0.2-0.1l0.2-0.1l0.3,0l0.3,0
		l0.2,0.1l0.2,0.1l0.2,0.2l0.2,0.2l0.1,0.2l0.1,0.2l0,0.3l0,0.7L47.4,50.9z"/>
	<path class="st0" d="M45.4,48l0.1,0.1l0,0.2l0,0.2l-0.1,0.1l-0.1,0l-0.1,0h0l-0.3-0.1l-0.1-0.1l0-0.2l0-0.2l0.1-0.1l0.1,0l0.1,0h0
		L45.4,48z"/>
	<path class="st0" d="M47.3,47L47.3,47l0.1,0.3l0,0.2l-0.1,0.1l-0.1,0l-0.1,0h-2l-0.2,0l-0.1-0.1l0-0.2l0-0.2l0.1-0.1l0.1,0l0.1,0h2
		L47.3,47z"/>
	<path class="st0" d="M59.2,43.6L59.2,43.6L59,43.8l-0.1,0h-2l-0.2,0l-0.1-0.1l0-0.2v-0.3h0.6h1.4v-0.3l0-0.3l-0.1-0.2l-0.2-0.2
		l-0.3-0.1l-0.3,0.1l-0.2,0.2l-0.1,0.2l0,0.2v0.3h-0.6v-0.3l0-0.3l0.1-0.2l0.1-0.2l0.2-0.2l0.2-0.2l0.2-0.1l0.2-0.1l0.3,0l0.3,0
		l0.2,0.1l0.2,0.1l0.2,0.2l0.2,0.2l0.1,0.2l0.1,0.2l0,0.3l0,0.7L59.2,43.6z"/>
	<path class="st0" d="M57.7,39.6L57.7,39.6l0.1,0.3v0.3h0.3l0.2,0l0.1,0.1l0,0.2l0,0.2l-0.1,0.1l-0.2,0h-0.3V41l0,0.2l-0.1,0.1
		l-0.2,0l-0.2,0l-0.1-0.1l0-0.2v-0.3H57l-0.2,0l-0.1-0.1l0-0.2l0-0.2l0.1-0.1l0.2,0h0.3v-0.3l0-0.2l0.1-0.1l0.2,0L57.7,39.6z"/>
	<path class="st0" d="M42.1,49.3l0.2,0.1l0.2,0.2l0.1,0.2l0.1,0.2l0,0.2l0,0.1l0.3,0v-0.6l0-0.1l0-0.1l0.1-0.1l0.2,0l0.2,0l0.1,0.1
		l0,0.1l0,0.1V50l0,0.5l0,0.1l-0.1,0.1l-0.1,0.1l-0.1,0l-0.1,0l-0.4,0.1L42.4,51l-0.2,0l-0.1,0L42,50.8L42,50.6l0.1-0.2l0.1-0.2
		L42,50l-0.2-0.1L41.7,50l-0.1,0.2l0.1,0.2l0.1,0.2l-0.1,0.2l-0.2,0.1l-0.2-0.1l0,0l-0.1-0.1L41,50.6L41,50.4l0-0.2l0-0.2l0.1-0.2
		l0.1-0.2l0.2-0.1l0.2-0.1l0.2,0L42.1,49.3z"/>
	<path class="st0" d="M43.5,46.5l0.1,0.2l0.1,0.2L43.6,47l-0.1,0.1l-1.6,0.7l0.1,0l0.2,0.1l0.3,0.1l0.3,0.1l0.3,0.1l0.3,0.1l0.2,0.1
		l0.1,0l0.1,0.1l0.1,0.1l0,0.1l-0.1,0.2l-0.1,0.2l-0.1,0.1l-0.2-0.1l-2-1L41.1,48l0-0.2v0l0-0.2l0.1-0.1l2-1l0.2-0.1L43.5,46.5z"/>
	<path class="st0" d="M29.4,54.2L29.4,54.2l0.6,0.5l0.1,0.2l-0.1,0.2l-0.2,0.1l-0.3-0.1l0,0v1.3l0,0.1l0,0.1l-0.1,0.1l-0.2,0l-0.2,0
		l-0.1-0.1l0-0.1l0-0.1v-2l0-0.2l0.1-0.1l0.1,0l0.2,0L29.4,54.2z"/>
	<path class="st0" d="M35.1,54.2l0.2,0.1l0.1,0.1l-0.1,0.2l-1,2l-0.1,0.1l-0.2,0h0l-0.2,0l-0.1-0.1l-1-2l-0.1-0.2l0.1-0.1l0.2-0.1
		l0.2-0.1l0.2,0.1l0.1,0.1l0.7,1.6l0-0.1l0.1-0.2l0.1-0.3l0.1-0.3l0.1-0.3l0.1-0.3l0.1-0.2l0-0.1l0.1-0.1l0.1-0.1l0.1,0L35.1,54.2z"
		/>
	<path class="st0" d="M31.8,54.2L31.8,54.2l0.6,0.5l0.1,0.2l-0.1,0.2l-0.2,0.1l-0.3-0.1l0,0v1.3l0,0.1l0,0.1l-0.1,0.1l-0.2,0l-0.2,0
		l-0.1-0.1l0-0.1l0-0.1v-2l0-0.2l0.1-0.1l0.1,0l0.2,0L31.8,54.2z"/>
	<path class="st0" d="M30.8,56.1L30.8,56.1l0.1,0.2l0,0.1v0l-0.1,0.3l-0.1,0.1l-0.2,0l-0.2,0l-0.1-0.1l0-0.1l0-0.1v0l0.1-0.3
		l0.1-0.1l0.2,0L30.8,56.1z"/>
	<path class="st0" d="M53.7,49.2l0.2-0.1l0.2,0l0.2,0l0.2,0.1l0.2,0.1l0.1,0.2l0.1,0.2l0,0.2v0.9l0,0.2L54.9,51l-0.1,0l-0.1,0h-2
		l-0.2,0l-0.1-0.1l0-0.2v-0.3H53h1.4v-0.5l0-0.2l-0.1-0.1l-0.1,0L54,49.9l-0.1,0.2l-0.2,0.1l-0.2-0.1l-0.1-0.2l0-0.2l-0.1-0.1
		l-0.1,0L53,49.7L53,49.8v0.6h-0.6v-0.6l0-0.2l0.1-0.2l0.1-0.2l0.2-0.1l0.2-0.1l0.2,0l0.2,0l0.2,0.1L53.7,49.2z"/>
</g>
<g>
	<circle class="st2" cx="77.5" cy="46" r="0.4"/>
</g>
<g>
	<circle class="st2" cx="76.3" cy="22.2" r="0.4"/>
</g>
<g>
	<circle class="st2" cx="57.9" cy="45.8" r="0.4"/>
</g>
<g>
</g>
<g>
	<circle class="st2" cx="66.4" cy="45.8" r="0.4"/>
</g>
<g>
	<circle class="st2" cx="46.2" cy="53.4" r="0.4"/>
</g>
<g>
	<circle class="st2" cx="70.2" cy="45.9" r="0.4"/>
</g>
<g>
	<circle class="st2" cx="49.9" cy="53.3" r="0.4"/>
</g>
<g>
	<circle class="st2" cx="53.5" cy="53.3" r="0.4"/>
</g>
<g>
	<circle class="st2" cx="42.6" cy="53.3" r="0.4"/>
</g>
<g>
	<circle class="st2" cx="73.8" cy="45.8" r="0.4"/>
</g>
<g>
	<g>
		<path class="st0" d="M54.1,52.1l0.2,0l0.2,0.1l0.1,0.2l0,0.2V55l0,0.2l-0.1,0.2l-0.2,0.1l-0.2,0h-1.3l-0.2,0l-0.2-0.1l-0.1-0.2
			l0-0.2v-2.3l0-0.2l0.1-0.2l0.2-0.1l0.2,0H54.1z"/>
	</g>
	<g>
		<path class="st0" d="M46.9,52.1l0.2,0l0.2,0.1l0.1,0.2l0,0.2V55l0,0.2l-0.1,0.2l-0.2,0.1l-0.2,0h-1.3l-0.2,0l-0.2-0.1L45,55.3
			l0-0.2v-2.3l0-0.2l0.1-0.2l0.2-0.1l0.2,0H46.9z"/>
	</g>
	<g>
		<path class="st0" d="M77,19l0.3,0.1l0.2,0.2l0.2,0.2l0.1,0.3v2.1l-0.1,0.3l-0.2,0.2l-0.2,0.2L77,22.6h-1.4l-0.3-0.1l-0.2-0.2
			L75,22.1l-0.1-0.3v-2.1l0.1-0.3l0.2-0.2l0.2-0.2l0.3-0.1H77z"/>
	</g>
	<g>
		<path class="st0" d="M74.4,44.8l0.2,0l0.2,0.1l0.1,0.2l0,0.2v2.3l0,0.2l-0.1,0.2l-0.2,0.1l-0.2,0h-1.3l-0.2,0l-0.2-0.1L72.5,48
			l0-0.2v-2.3l0-0.2l0.1-0.2l0.2-0.1l0.2,0H74.4z"/>
	</g>
	<g>
		<path class="st0" d="M50.5,52.1l0.2,0l0.2,0.1l0.1,0.2l0,0.2V55l0,0.2L51,55.5l-0.2,0.1l-0.2,0h-1.3l-0.2,0l-0.2-0.1l-0.1-0.2
			l0-0.2v-2.3l0-0.2l0.1-0.2l0.2-0.1l0.2,0H50.5z"/>
	</g>
	<g>
		<path class="st0" d="M58.5,44.8l0.2,0l0.2,0.1l0.1,0.2l0,0.2v2.3l0,0.2L59,48.1l-0.2,0.1l-0.2,0h-1.3l-0.2,0l-0.2-0.1l-0.1-0.2
			l0-0.2v-2.3l0-0.2l0.1-0.2l0.2-0.1l0.2,0H58.5z"/>
	</g>
	<g>
		<path class="st0" d="M67.1,44.8l0.2,0l0.2,0.1l0.1,0.2l0,0.2v2.3l0,0.2l-0.1,0.2l-0.2,0.1l-0.2,0h-1.3l-0.2,0l-0.2-0.1L65.3,48
			l0-0.2v-2.3l0-0.2l0.1-0.2l0.2-0.1l0.2,0H67.1z"/>
	</g>
	<g>
		<path class="st0" d="M78,44.8l0.2,0l0.2,0.1l0.1,0.2l0,0.2v2.3l0,0.2l-0.1,0.2l-0.2,0.1l-0.2,0h-1.3l-0.2,0l-0.2-0.1L76.1,48
			l0-0.2v-2.3l0-0.2l0.1-0.2l0.2-0.1l0.2,0H78z"/>
	</g>
	<g>
		<path class="st0" d="M70.7,44.8l0.2,0l0.2,0.1l0.1,0.2l0,0.2v2.3l0,0.2l-0.1,0.2L71,48.3l-0.2,0h-1.3l-0.2,0L69,48.2L68.9,48
			l0-0.2v-2.3l0-0.2L69,45l0.2-0.1l0.2,0H70.7z"/>
	</g>
	<g>
		<path class="st0" d="M43.3,52.1l0.2,0l0.2,0.1l0.1,0.2l0,0.2V55l0,0.2l-0.1,0.2l-0.2,0.1l-0.2,0H42l-0.2,0l-0.2-0.1l-0.1-0.2
			l0-0.2v-2.3l0-0.2l0.1-0.2l0.2-0.1l0.2,0H43.3z"/>
	</g>
</g>
<g>
	<path class="st3" d="M63.6,46.9l17.3,0"/>
	<path class="st3" d="M80.9,46.9c0.6,0,1.1-0.5,1.1-1.1l0,0"/>
	<path class="st3" d="M57,46.9l6.5,0"/>
	<path class="st3" d="M55.9,54.3h-15"/>
	<path class="st3" d="M81.1,21.4H20.5"/>
	<path class="st3" d="M56.5,53.7v-6.2"/>
	<path class="st3" d="M55.9,54.3c0.3,0,0.6-0.3,0.6-0.6"/>
	<path class="st3" d="M39.5,59.6c0.8,0,1.4-0.6,1.4-1.4"/>
	<path class="st3" d="M57,46.9c-0.3,0-0.6,0.3-0.6,0.6c0,0,0,0,0,0"/>
	<path class="st3" d="M82,22.2c0-0.5-0.4-0.9-0.9-0.9"/>
	<path class="st3" d="M19.6,22.2v36"/>
	<path class="st3" d="M40.9,58.2v-4"/>
	<path class="st3" d="M82,45.8V22.2"/>
	<path class="st3" d="M20.5,21.4c-0.5,0-0.9,0.4-0.9,0.9"/>
	<path class="st3" d="M19.6,58.2c0,0.8,0.6,1.4,1.4,1.4"/>
	<path class="st3" d="M21,59.6h18.4"/>
</g>
</svg>
